<svg xmlns="http://www.w3.org/2000/svg" width="120" height="54" fill="none"><path fill="#fff" d="M26.515 45.91c.199-.069.395-.14.59-.215V52.9a27.348 27.348 0 0 1-1.769.02 27.383 27.383 0 0 1-.59-.02v-6.47c.199-.049.395-.1.59-.154v-5.222c.196.008.392.015.59.015.198 0 .394-.007.59-.015v4.857Zm3.618-5.482a13.784 13.784 0 0 1-1.14.3l.968 3.613c-.175.101-.353.199-.531.295l2.06 7.69a25.248 25.248 0 0 0 2.279-.608l-2.245-8.377c-.17.12-.342.237-.516.352l-.875-3.265Zm3.328-1.551a14.167 14.167 0 0 1-1.02.59l1.226 2.125a19.95 19.95 0 0 1-.446.406l4.634 8.026a26.145 26.145 0 0 0 2.042-1.18l-4.948-8.57c-.137.155-.276.307-.417.457l-1.07-1.855Zm2.816-2.355c-.133.145-.268.288-.407.427a14.13 14.13 0 0 1-.426.407l1.006 1.007c-.113.164-.229.326-.347.486l7.3 7.3a26.031 26.031 0 0 0 1.667-1.667l-7.656-7.657c-.1.177-.202.353-.307.527l-.83-.83Zm2.112-3.003a13.958 13.958 0 0 1-.591 1.02l.582.336c-.078.182-.16.362-.242.541l9.628 5.56a26.806 26.806 0 0 0 1.18-2.042l-9.936-5.736c-.062.19-.126.38-.194.568l-.427-.247Zm1.261-3.447a13.985 13.985 0 0 1-.301 1.14l.185.05c-.042.192-.086.383-.133.574l11.239 3.011a24.847 24.847 0 0 0 .475-1.703c.047-.19.09-.383.133-.575L39.834 29.51a22.55 22.55 0 0 1-.083.589l-.1-.027h-.001Zm12.19-3.657a26.15 26.15 0 0 0-.02-.59H39.955c.011.197.02.393.026.59h-.005a23.93 23.93 0 0 1 .014.59 10.46 10.46 0 0 1-.014.59h.005c-.006.197-.015.393-.026.589H51.82a26.158 26.158 0 0 0 .02-1.769Zm-12.49-3.617a13.829 13.829 0 0 1 .301 1.14l.1-.027c.031.195.059.39.083.588l11.415-3.059a25.489 25.489 0 0 0-.609-2.278L39.4 22.174c.047.19.092.382.134.574l-.185.05Zm-1.551-3.328a13.707 13.707 0 0 1 .59 1.02l.428-.247c.067.189.132.378.194.569l9.935-5.736a26.426 26.426 0 0 0-1.18-2.042l-9.628 5.559c.083.179.164.36.242.54l-.581.337Zm-2.354-2.816c.144.133.287.267.426.406.14.14.274.282.407.427l.83-.83c.105.174.207.35.307.527l7.656-7.656a25.935 25.935 0 0 0-1.667-1.667l-7.3 7.3c.118.16.234.322.347.486l-1.006 1.007Zm-3.003-2.112a14.035 14.035 0 0 1 1.02.59l1.07-1.854c.142.15.28.303.418.457l4.947-8.57a25.926 25.926 0 0 0-2.041-1.18l-4.634 8.027c.15.133.3.268.446.406l-1.226 2.124Zm-3.448-1.261a13.905 13.905 0 0 1 1.14.301l.875-3.266c.174.115.346.232.516.352l2.244-8.377a26.155 26.155 0 0 0-2.278-.608l-2.06 7.69c.178.097.355.194.53.295l-.967 3.613Zm-3.657-.325c.196-.008.392-.015.59-.015.198 0 .394.007.59.015V8.1c.198.068.394.14.59.214V1.11a25.77 25.77 0 0 0-2.36 0v6.471c.199.048.395.1.59.153v5.222Zm-3.617.626a13.851 13.851 0 0 1 1.14-.301l-1.67-6.233c.209.012.416.028.623.047l-1.45-5.412a25.425 25.425 0 0 0-2.279.608l1.268 4.732c.202-.006.404-.01.608-.01l1.76 6.57v-.001Zm-3.328 1.55a14.194 14.194 0 0 1 1.02-.59L15.374 7.55c.2-.047.401-.093.604-.134l-1.98-3.43a26.367 26.367 0 0 0-2.042 1.18L13.62 8.05c.19-.064.382-.124.575-.182l4.195 7.265Zm-2.816 2.355a13.59 13.59 0 0 1 .833-.833L9.65 9.894c.174-.105.35-.207.527-.307L8.449 7.861a26.486 26.486 0 0 0-1.265 1.236c-.136.142-.27.286-.402.43l1.37 1.371c.16-.118.322-.234.486-.347l6.937 6.936Zm-2.112 3.003a14.04 14.04 0 0 1 .591-1.02l-9.318-5.38c.13-.153.26-.304.394-.453l-1.044-.603a27.406 27.406 0 0 0-.902 1.521c-.094.173-.187.346-.277.52l.736.426c.114-.161.23-.321.348-.48l9.472 5.47Zm-1.261 3.448a14.15 14.15 0 0 1 .301-1.14L1.34 19.807c.071-.185.145-.37.221-.551l-.348-.094a26.83 26.83 0 0 0-.476 1.704c-.046.19-.09.382-.133.575l.171.045c.055-.189.112-.377.172-.564l11.255 3.016Zm-.325 3.656a14.227 14.227 0 0 1-.014-.59c0-.197.006-.393.014-.589H.011v.074c-.004.171-.007.343-.007.516a26.547 26.547 0 0 0 .007.59h11.866Zm.626 3.618a13.995 13.995 0 0 1-.301-1.14L.947 33.088a19.97 19.97 0 0 1-.172-.565l-.17.046a25.559 25.559 0 0 0 .607 2.278l.35-.093c-.078-.182-.15-.366-.222-.55l11.163-2.992Zm1.551 3.328a14.045 14.045 0 0 1-.59-1.02l-9.472 5.468a20.26 20.26 0 0 1-.348-.48l-.737.426a26.374 26.374 0 0 0 1.18 2.041l1.044-.602a19.67 19.67 0 0 1-.395-.453l9.318-5.38Zm2.354 2.816a14.133 14.133 0 0 1-.426-.407 14.007 14.007 0 0 1-.407-.427L8.639 43.46a20.632 20.632 0 0 1-.487-.347l-1.37 1.37a26.288 26.288 0 0 0 1.667 1.667l1.727-1.727c-.177-.1-.353-.201-.527-.307l6.76-6.759Zm3.003 2.112a14.126 14.126 0 0 1-1.02-.591l-4.195 7.265a20.128 20.128 0 0 1-.575-.183l-1.665 2.885a25.385 25.385 0 0 0 2.041 1.18l1.981-3.43a19.867 19.867 0 0 1-.603-.134l4.037-6.992Zm3.448 1.26a13.994 13.994 0 0 1-1.14-.3l-1.76 6.57a20.348 20.348 0 0 1-.607-.012l-1.268 4.732a26.268 26.268 0 0 0 2.278.609l1.45-5.412a19.93 19.93 0 0 1-.623.047l1.67-6.233Zm3.246-13.056-.003-.01Zm-.484.471.06-.222Zm.126-.47.003-.01Zm83.198-15.916H97.82v13.07h-6.282v4.355h6.282v9.961h5.291V16.425h6.419c2.995 0 4.784 1.556 4.784 4.201 0 2.373-1.789 4.202-4.784 4.202h-2.938v4.357h2.977c6.457 0 10.036-4.046 10.036-8.714s-2.956-8.714-10.659-8.714Zm-31.426-.311c7.742 0 11.515 4.862 12.371 9.647H84.64c-.856-2.684-2.84-4.98-7.041-4.98-5.602 0-8.559 4.163-8.559 9.337 0 5.096 2.801 9.336 8.364 9.336 3.968 0 6.185-2.567 7.002-5.601h-6.652v-4.357h12.137v14.315h-5.446v-1.79c0-.894.156-1.71.7-3.034l.273-.66h-.934l-.233.466c-1.128 2.256-3.307 5.33-7.897 5.33-7.897 0-12.604-6.264-12.604-14.005 0-7.741 4.824-14.004 13.77-14.004Z"/></svg>