<svg width="120" height="54" viewBox="0 0 120 54" fill="none" xmlns="http://www.w3.org/2000/svg">
<path d="M26.5155 45.9097C26.7136 45.8414 26.9099 45.7697 27.1051 45.6954V52.8994C26.9091 52.9081 26.7128 52.9152 26.5155 52.9197C26.3195 52.9241 26.1231 52.9272 25.926 52.9272C25.7289 52.9272 25.5326 52.9241 25.3364 52.9197C25.1393 52.9152 24.9429 52.9081 24.7469 52.8994V46.4282C24.9445 46.3801 25.1411 46.3293 25.3364 46.2753V41.0532C25.5321 41.0613 25.7283 41.0682 25.926 41.0682C26.1237 41.0682 26.3197 41.0613 26.5155 41.0532V45.9097V45.9097ZM30.133 40.4275C29.9459 40.4861 29.7566 40.539 29.5662 40.5898C29.3768 40.6405 29.1856 40.6859 28.9931 40.7288L29.961 44.3413C29.7858 44.4423 29.6082 44.54 29.4297 44.6358L31.4904 52.3267C31.6829 52.2846 31.8745 52.2404 32.0652 52.194C32.2564 52.1475 32.447 52.0991 32.6365 52.0484C32.8266 51.9976 33.0159 51.9449 33.2043 51.8899C33.3933 51.8348 33.5815 51.7778 33.7687 51.7184L31.5241 43.3412C31.3542 43.4613 31.1818 43.5782 31.0081 43.6932L30.1331 40.4277L30.133 40.4275ZM33.4611 38.8766C33.2953 38.9821 33.1272 39.0839 32.957 39.1825C32.787 39.2808 32.6152 39.3761 32.4408 39.4674L33.6672 41.5917C33.5205 41.7292 33.3718 41.8645 33.2209 41.9976L37.8548 50.0239C38.0294 49.9332 38.203 49.841 38.3753 49.7465C38.5478 49.6518 38.7191 49.5557 38.8891 49.4572C39.0592 49.3588 39.2283 49.2587 39.3962 49.1566C39.5641 49.0542 39.731 48.9503 39.8965 48.8442L34.9489 40.2747C34.812 40.4288 34.6732 40.5812 34.5317 40.731L33.4611 38.8765V38.8766ZM36.2773 36.5223C36.1442 36.6669 36.0094 36.81 35.8704 36.949C35.7314 37.088 35.5883 37.2228 35.4436 37.3559L36.4504 38.3627C36.337 38.5266 36.2214 38.6889 36.1032 38.8493L43.4029 46.149C43.5481 46.0164 43.692 45.8824 43.8341 45.7466C43.9761 45.6108 44.117 45.4737 44.256 45.3347C44.3949 45.1958 44.532 45.0551 44.6678 44.9129C44.8036 44.7708 44.9376 44.6269 45.0702 44.4817L37.414 36.8253C37.3139 37.0024 37.2121 37.1782 37.1068 37.3519L36.2773 36.5224V36.5223ZM38.3888 33.5194C38.2975 33.6938 38.2022 33.8657 38.1039 34.0356C38.0054 34.2059 37.9034 34.3739 37.798 34.5397L38.3796 34.8754C38.3016 35.0573 38.2208 35.2374 38.1375 35.4164L47.7656 40.9751C47.8715 40.8096 47.9755 40.6427 48.0778 40.4748C48.1801 40.3071 48.2802 40.138 48.3786 39.9677C48.4769 39.7978 48.5732 39.6264 48.6678 39.4539C48.7623 39.2816 48.8546 39.1082 48.9453 38.9335L39.0103 33.1975C38.9482 33.3882 38.8837 33.5779 38.816 33.7661L38.3888 33.5194V33.5194ZM39.65 30.0718C39.6071 30.2641 39.5617 30.4555 39.511 30.6448C39.4602 30.835 39.4073 31.0245 39.3487 31.2116L39.5337 31.2612C39.492 31.4537 39.4477 31.6452 39.4005 31.8356L50.6396 34.8472C50.699 34.6601 50.756 34.4719 50.8111 34.2829C50.8661 34.0945 50.9188 33.9052 50.9696 33.7151C51.0203 33.5255 51.0687 33.335 51.1153 33.1438C51.1616 32.9531 51.2058 32.7615 51.2479 32.569L39.8336 29.5105C39.809 29.7074 39.7813 29.9036 39.7512 30.0986L39.6503 30.0716L39.65 30.0718ZM51.8409 26.4152C51.8366 26.2181 51.8293 26.0217 51.8206 25.8257H39.9538C39.9653 26.0215 39.9743 26.2178 39.98 26.4152H39.9745C39.9783 26.5091 39.9818 26.6031 39.9845 26.6973C39.9873 26.7994 39.9894 26.9019 39.9894 27.0048C39.9894 27.1077 39.9875 27.2101 39.9845 27.3122C39.9818 27.4064 39.9783 27.5003 39.9745 27.5943H39.98C39.9743 27.7916 39.9653 27.988 39.9538 28.1839H51.8206C51.8293 27.9879 51.8366 27.7914 51.8409 27.5943C51.8452 27.3983 51.8484 27.2019 51.8484 27.0049C51.8484 26.808 51.8452 26.6115 51.8409 26.4154V26.4152ZM39.3487 22.7978C39.4073 22.9849 39.4602 23.1743 39.511 23.3646C39.5617 23.5539 39.6071 23.7453 39.65 23.9376L39.7508 23.9106C39.7812 24.1058 39.8088 24.3018 39.8333 24.4987L51.2476 21.4403C51.2055 21.248 51.1613 21.0563 51.1149 20.8656C51.0684 20.6743 51.02 20.4838 50.9693 20.2943C50.9185 20.1042 50.8658 19.9149 50.8108 19.7265C50.7557 19.5375 50.6987 19.3493 50.6393 19.1622L39.4002 22.1738C39.4475 22.3642 39.4918 22.5557 39.5336 22.7482L39.3486 22.7978H39.3487ZM37.7978 19.4697C37.9033 19.6355 38.0053 19.8034 38.1037 19.9738C38.202 20.1437 38.2973 20.3156 38.3886 20.4899L38.8159 20.2433C38.8835 20.4315 38.948 20.6211 39.0101 20.8119L48.9451 15.0759C48.8544 14.9014 48.762 14.7278 48.6675 14.5555C48.573 14.383 48.4768 14.2116 48.3783 14.0417C48.2798 13.8714 48.1799 13.7023 48.0777 13.5346C47.9752 13.3665 47.8713 13.1998 47.7653 13.0343L38.1372 18.593C38.2203 18.772 38.3013 18.9521 38.3793 19.1339L37.7977 19.4697H37.7978ZM35.4436 16.6535C35.5883 16.7866 35.7314 16.9214 35.8704 17.0604C36.0094 17.1993 36.1442 17.3424 36.2773 17.4871L37.1068 16.6576C37.2121 16.8312 37.3139 17.0072 37.414 17.1843L45.0704 9.52783C44.9378 9.38267 44.8037 9.23877 44.6678 9.09663C44.532 8.95464 44.3949 8.81377 44.256 8.6748C44.117 8.53583 43.9763 8.39877 43.8341 8.26298C43.692 8.12719 43.5481 7.99314 43.4029 7.86053L36.1032 15.1602C36.2214 15.3207 36.337 15.4828 36.4504 15.6469L35.4436 16.6536V16.6535ZM32.4407 14.542C32.615 14.6333 32.7869 14.7286 32.9568 14.8269C33.1271 14.9255 33.2953 15.0273 33.4609 15.1328L34.5315 13.2784C34.673 13.4281 34.8118 13.5806 34.9487 13.7347L39.8963 5.16518C39.7308 5.05909 39.5641 4.95522 39.396 4.85278C39.2283 4.75066 39.0592 4.65061 38.8889 4.55214C38.719 4.45383 38.5476 4.35758 38.3751 4.26308C38.2028 4.16858 38.0292 4.07615 37.8547 3.98546L33.2208 12.0118C33.3717 12.1449 33.5203 12.2802 33.6671 12.4177L32.4407 14.542V14.542ZM28.993 13.2808C29.1855 13.3236 29.3767 13.3691 29.566 13.4197C29.7564 13.4706 29.9457 13.5234 30.1328 13.582L31.0078 10.3165C31.1815 10.4314 31.3538 10.5483 31.5238 10.6685L33.7684 2.29132C33.5811 2.23193 33.3929 2.17507 33.2039 2.1198C33.0156 2.06485 32.8263 2.01212 32.6362 1.9613C32.4465 1.91063 32.2561 1.86219 32.0649 1.81566C31.8741 1.76928 31.6826 1.72513 31.4901 1.68304L29.4294 9.37393C29.6081 9.4697 29.7855 9.56738 29.9607 9.66839L28.9928 13.2809L28.993 13.2808ZM25.3364 12.9563C25.5321 12.9482 25.7283 12.9414 25.926 12.9414C26.1237 12.9414 26.3197 12.9482 26.5155 12.9563V8.09987C26.7136 8.16817 26.9099 8.23979 27.1051 8.31396V1.11018C26.9091 1.10144 26.7128 1.09413 26.5155 1.08985C26.3195 1.08556 26.1231 1.08238 25.926 1.08238C25.7289 1.08238 25.5326 1.0854 25.3364 1.08985C25.1393 1.09429 24.9429 1.10144 24.7469 1.11018V7.58116C24.9445 7.62929 25.1411 7.68011 25.3364 7.73411V12.9561V12.9563ZM21.719 13.582C21.9059 13.5234 22.0954 13.4706 22.2858 13.4197C22.4751 13.3691 22.6665 13.3236 22.859 13.2808L21.189 7.04816C21.3975 7.06039 21.6051 7.07611 21.8117 7.0947L20.3617 1.68304C20.1692 1.72513 19.9777 1.76928 19.7869 1.81566C19.5957 1.86219 19.4051 1.91063 19.2155 1.9613C19.0254 2.01212 18.8361 2.06485 18.6477 2.1198C18.4587 2.17491 18.2705 2.23193 18.0834 2.29132L19.3513 7.02339C19.5532 7.01703 19.7553 7.01275 19.9586 7.01243L21.7188 13.5822L21.719 13.582ZM18.3909 15.1329C18.5566 15.0275 18.7246 14.9257 18.895 14.827C19.0649 14.7287 19.2368 14.6334 19.4113 14.5421L15.3744 7.55003C15.5745 7.50271 15.7754 7.45744 15.9778 7.41615L13.9971 3.98562C13.8226 4.07631 13.649 4.16858 13.4767 4.26308C13.3044 4.35774 13.133 4.45383 12.9629 4.55229C12.7926 4.65076 12.6235 4.75082 12.4558 4.85294C12.2877 4.95538 12.1208 5.05925 11.9555 5.16534L13.621 8.05032C13.8115 7.98632 14.0033 7.92596 14.1961 7.86752L18.3907 15.1329H18.3909ZM15.5747 17.4873C15.7078 17.3426 15.8425 17.1995 15.9816 17.0605C16.1206 16.9216 16.2638 16.7867 16.4083 16.6536L9.64925 9.89455C9.82285 9.78925 9.99882 9.68744 10.1757 9.58739L8.44889 7.86053C8.30373 7.99314 8.15984 8.12719 8.01769 8.26298C7.87571 8.39877 7.73483 8.53583 7.59602 8.6748C7.45705 8.81377 7.31999 8.95449 7.1842 9.09663C7.04841 9.23877 6.91436 9.38267 6.78159 9.52783L8.15174 10.898C8.31214 10.7798 8.47446 10.6642 8.63836 10.5508L15.5747 17.4871V17.4873ZM13.4632 20.4901C13.5545 20.3157 13.6498 20.1439 13.7481 19.9739C13.8466 19.8035 13.9485 19.6357 14.054 19.4698L4.73582 14.09C4.86526 13.9372 4.9966 13.786 5.13049 13.6372L4.0864 13.0343C3.98047 13.1998 3.87644 13.3667 3.774 13.5346C3.67172 13.7023 3.57182 13.8714 3.4732 14.0417C3.37489 14.2116 3.27864 14.383 3.18414 14.5555C3.08965 14.7278 2.99737 14.9012 2.90652 15.0759L3.64329 15.5012C3.75717 15.3397 3.87295 15.1796 3.99143 15.0216L13.463 20.4901H13.4632ZM12.202 23.9378C12.2449 23.7455 12.2903 23.5541 12.3409 23.3648C12.3919 23.1745 12.4447 22.985 12.5033 22.7979L1.33992 19.8067C1.41123 19.6218 1.4846 19.4379 1.56131 19.2558L1.21254 19.1624C1.1533 19.3496 1.09629 19.5377 1.04102 19.7267C0.986066 19.915 0.933337 20.1043 0.882514 20.2944C0.831851 20.4841 0.78341 20.6745 0.736876 20.8657C0.6905 21.0565 0.646348 21.248 0.604261 21.4405L0.775469 21.4864C0.829786 21.2971 0.887438 21.109 0.947155 20.9221L12.2021 23.9378H12.202ZM11.8775 27.5943C11.8694 27.3986 11.8626 27.2025 11.8626 27.0049C11.8626 26.8074 11.8694 26.6112 11.8775 26.4154H0.0110656C0.0110656 26.4154 0.0105892 26.4643 0.0101128 26.4886C0.00677755 26.6604 0.00360107 26.8323 0.00360107 27.0048C0.00360107 27.1772 0.00677755 27.3493 0.0101128 27.5209C0.0105892 27.5452 0.0110656 27.5942 0.0110656 27.5942H11.8775V27.5943ZM12.5033 31.2118C12.4447 31.0247 12.3918 30.8352 12.3409 30.6449C12.2904 30.4556 12.2449 30.2642 12.202 30.0719L0.946996 33.0878C0.887279 32.9007 0.829627 32.7128 0.775311 32.5235L0.604102 32.5694C0.64619 32.7617 0.690342 32.9534 0.736717 33.1441C0.783252 33.3354 0.831692 33.5258 0.882356 33.7154C0.933178 33.9055 0.985907 34.0948 1.04086 34.2832C1.09597 34.4722 1.15299 34.6604 1.21239 34.8475L1.56116 34.7541C1.48444 34.5719 1.41123 34.388 1.33976 34.2032L12.5031 31.2119L12.5033 31.2118ZM14.0541 34.5399C13.9487 34.3742 13.8469 34.2062 13.7483 34.0358C13.6499 33.8658 13.5547 33.694 13.4633 33.5196L3.99175 38.9881C3.87327 38.8301 3.75749 38.67 3.64361 38.5085L2.90684 38.9338C2.99753 39.1083 3.08996 39.2819 3.18446 39.4542C3.27896 39.6267 3.3752 39.7979 3.47351 39.968C3.57198 40.1383 3.67204 40.3074 3.77432 40.4751C3.87676 40.6432 3.98063 40.8099 4.08672 40.9754L5.13081 40.3725C4.99692 40.2237 4.86558 40.0727 4.73614 39.9197L14.0543 34.5399H14.0541ZM16.4085 37.3561C16.2638 37.223 16.1207 37.0881 15.9818 36.9492C15.8428 36.8102 15.7079 36.6671 15.5749 36.5224L8.63852 43.4587C8.47462 43.3453 8.3123 43.2297 8.15189 43.1117L6.78159 44.4819C6.91421 44.627 7.04825 44.7709 7.1842 44.9131C7.31999 45.0551 7.45705 45.1959 7.59602 45.3349C7.73499 45.4739 7.87571 45.6109 8.01785 45.7467C8.15999 45.8825 8.30389 46.0166 8.44905 46.1492L10.1759 44.4223C9.99882 44.3223 9.823 44.2205 9.64941 44.1152L16.4085 37.3561V37.3561ZM19.4115 39.4676C19.2371 39.3763 19.0653 39.281 18.8952 39.1827C18.7249 39.084 18.5569 38.9822 18.3911 38.8768L14.1964 46.1422C14.0036 46.0837 13.8116 46.0234 13.6214 45.9594L11.9558 48.8445C12.1211 48.9506 12.2881 49.0545 12.4561 49.1569C12.6238 49.259 12.793 49.3591 12.9632 49.4576C13.1331 49.5559 13.3045 49.6521 13.477 49.7468C13.6493 49.8413 13.8229 49.9337 13.9974 50.0242L15.9781 46.5937C15.7758 46.5524 15.5749 46.5072 15.3747 46.4598L19.4116 39.4677L19.4115 39.4676ZM22.8592 40.7288C22.6667 40.6859 22.4755 40.6405 22.286 40.5898C22.0957 40.539 21.9062 40.4861 21.7191 40.4275L19.9589 46.9973C19.7556 46.997 19.5533 46.9927 19.3516 46.9863L18.0837 51.7184C18.271 51.7778 18.4592 51.8346 18.6482 51.8899C18.8366 51.9449 19.0259 51.9976 19.2158 52.0484C19.4054 52.0991 19.5959 52.1475 19.7873 52.194C19.978 52.2404 20.1695 52.2846 20.362 52.3267L21.8121 46.915C21.6054 46.9336 21.3979 46.9493 21.1893 46.9615L22.8593 40.7289L22.8592 40.7288ZM26.105 27.6721L26.1023 27.6623ZM25.6211 28.1435L25.6806 27.9213ZM25.7473 27.6723L25.75 27.6624Z" fill="white"/>
<path d="M108.946 11.7569H97.8205V24.8275H91.5376V29.1819H97.8205V39.1431H103.111V16.4251H109.53C112.525 16.4251 114.314 17.981 114.314 20.6264C114.314 22.9995 112.525 24.8276 109.53 24.8276H106.592V29.1846H109.569C116.026 29.1846 119.605 25.1388 119.605 20.4709C119.605 15.803 116.649 11.757 108.946 11.757V11.7569Z" fill="white"/>
<path d="M77.5208 11.4457C85.262 11.4457 89.0354 16.3084 89.8912 21.0931H84.6396C83.7839 18.4089 81.7999 16.1138 77.5986 16.1138C71.9967 16.1138 69.0404 20.2762 69.0404 25.4501C69.0404 30.5462 71.8414 34.7863 77.4042 34.7863C81.372 34.7863 83.5893 32.2189 84.4063 29.1846H77.7543V24.8277H89.8913V39.1431H84.4452V37.3537C84.4452 36.4589 84.6009 35.6421 85.1454 34.3194L85.4177 33.6581H84.4841L84.2507 34.1249C83.1226 36.3811 80.9442 39.4542 76.3539 39.4542C68.4569 39.4542 63.7499 33.1913 63.7499 25.4499C63.7499 17.7085 68.5738 11.4456 77.5209 11.4456L77.5208 11.4457Z" fill="white"/>
</svg>

